<?xml version="1.0" standalone="no"?>
<!DOCTYPE svg PUBLIC "-//W3C//DTD SVG 20010904//EN"
 "http://www.w3.org/TR/2001/REC-SVG-20010904/DTD/svg10.dtd">
<svg version="1.0" xmlns="http://www.w3.org/2000/svg"
 width="1920.000000pt" height="1080.000000pt" viewBox="0 0 1920.000000 1080.000000"
 preserveAspectRatio="xMidYMid meet">

<g transform="translate(0.000000,1080.000000) scale(0.100000,-0.100000)"
fill="#000000" stroke="none">
<path d="M0 5400 l0 -5400 9600 0 9600 0 0 5400 0 5400 -9600 0 -9600 0 0
-5400z m9575 340 l0 -615 -172 -3 -173 -2 0 620 0 620 173 -2 172 -3 0 -615z
m1010 598 c164 -48 241 -136 267 -302 29 -186 -44 -351 -186 -423 -80 -40
-163 -53 -363 -53 l-183 0 0 -220 0 -220 -172 2 -173 3 -3 605 c-1 333 0 611
3 619 8 20 738 10 810 -11z m1298 -121 l2 -137 -157 0 -158 0 -2 -477 -3 -478
-172 -3 -173 -2 0 480 0 480 -160 0 -160 0 0 140 0 140 491 -2 490 -3 2 -138z
m421 91 c13 -29 90 -217 171 -418 81 -201 150 -368 154 -372 4 -4 83 182 177
415 l170 422 187 3 c103 1 187 -1 187 -6 0 -4 -54 -132 -120 -283 -66 -151
-184 -420 -262 -599 -78 -179 -146 -331 -151 -338 -7 -9 -53 -12 -190 -10
l-181 3 -41 95 c-23 52 -108 244 -188 425 -287 651 -307 698 -307 706 0 5 83
9 186 9 l185 0 23 -52z m-5852 -153 c152 -39 259 -138 284 -263 l7 -32 -121 0
-121 0 -16 33 c-34 71 -149 110 -257 88 -73 -15 -117 -45 -148 -101 -22 -39
-25 -57 -25 -140 1 -112 22 -164 83 -205 74 -49 201 -55 289 -14 42 20 64 45
77 87 7 22 7 22 -108 22 l-116 0 0 80 0 80 236 0 237 0 -6 -82 c-18 -262 -171
-397 -456 -399 -287 -2 -450 121 -481 363 -28 230 78 411 280 477 91 29 262
32 362 6z m1028 -95 l0 -90 -200 0 -200 0 0 -70 0 -70 200 0 200 0 0 -85 0
-85 -200 0 -200 0 0 -75 0 -75 200 0 200 0 0 -90 0 -90 -315 0 -315 0 0 410 0
410 315 0 315 0 0 -90z m710 0 l0 -89 -107 -3 -108 -3 -2 -315 -2 -315 -110
-3 -111 -3 -2 318 -3 318 -107 3 -108 3 0 89 0 90 330 0 330 0 0 -90z"/>
<path d="M10120 5956 l0 -146 115 0 c208 0 255 23 263 130 10 131 -23 153
-230 158 l-148 4 0 -146z"/>
</g>
</svg>
