<?xml version="1.0" standalone="no"?>
<!DOCTYPE svg PUBLIC "-//W3C//DTD SVG 20010904//EN"
 "http://www.w3.org/TR/2001/REC-SVG-20010904/DTD/svg10.dtd">
<svg version="1.0" xmlns="http://www.w3.org/2000/svg"
 width="1000.000000pt" height="250.000000pt" viewBox="0 0 1000.000000 250.000000"
 preserveAspectRatio="xMidYMid meet">

<g transform="translate(0.000000,250.000000) scale(0.100000,-0.100000)"
fill="#000000" stroke="none">
<path d="M1365 2374 c-461 -82 -843 -407 -989 -844 -20 -62 -326 -1384 -326
-1411 0 -5 1828 -9 4238 -9 4653 0 4315 -4 4515 60 194 62 362 166 512 315
144 143 238 290 303 477 25 69 332 1384 332 1419 0 5 -1655 9 -4252 8 -3620
-1 -4265 -3 -4333 -15z m2713 -136 c-3 -13 -105 -467 -229 -1010 l-224 -988
-1706 0 -1707 0 13 57 c8 32 68 299 135 593 131 575 141 613 201 734 175 349
500 578 894 629 17 2 614 5 1329 6 l1298 1 -4 -22z m892 -988 l0 -670 -190 0
-190 0 0 670 0 670 190 0 190 0 0 -670z m1083 655 c83 -17 177 -66 219 -114
137 -155 125 -477 -22 -615 -103 -96 -176 -116 -467 -123 l-223 -6 0 -233 0
-234 -190 0 -190 0 0 670 0 670 403 0 c310 0 417 -4 470 -15z m1437 -135 l0
-150 -175 0 -175 0 0 -520 0 -520 -185 0 -185 0 0 520 0 520 -175 0 -175 0 0
150 0 150 535 0 535 0 0 -150z m629 -312 c102 -252 188 -458 191 -458 3 0 88
207 190 460 l184 460 207 0 207 0 -293 -667 -292 -668 -204 -3 -204 -2 -287
652 c-158 359 -290 661 -294 671 -6 16 6 17 202 15 l208 -3 185 -457z"/>
<path d="M5560 1490 l0 -162 163 4 c133 3 168 6 195 21 46 25 65 75 60 154 -7
113 -47 134 -265 141 l-153 5 0 -163z"/>
</g>
</svg>
